<svg width="375" height="419" viewBox="0 0 375 419" fill="none" xmlns="http://www.w3.org/2000/svg">
<path d="M149 354.5C70.8991 342.335 110.878 208.509 44 197C19.4332 192.772 -11 215.5 -11 215.5V-57H365C365 -57 511.373 496.663 363.5 405C317.702 376.611 337.538 328.477 285.5 314.5C221.814 297.395 214.157 364.649 149 354.5Z" fill="#20B17D"/>
<path d="M159.5 357.5C81.3991 345.335 121.378 211.509 54.5 200C29.9332 195.772 -0.5 218.5 -0.5 218.5V-54H375.5C375.5 -54 521.873 499.663 374 408C328.202 379.611 348.038 331.477 296 317.5C232.314 300.395 224.657 367.649 159.5 357.5Z" fill="#2CE5A3"/>
<circle cx="-5" cy="-13" r="100" fill="#20B17D"/>
<circle cx="447" cy="227" r="100" fill="#20B17D"/>
</svg>
